<?xml version="1.0" encoding="UTF-8" standalone="no"?>
<!DOCTYPE svg PUBLIC "-//W3C//DTD SVG 1.1//EN"
 "http://www.w3.org/Graphics/SVG/1.1/DTD/svg11.dtd">
<!-- Generated by graphviz version 2.38.0 (20140413.2041)
 -->
<!-- Title: MovieSign Pages: 1 -->
<svg width="342pt" height="413pt"
 viewBox="0.00 0.00 341.50 413.19" xmlns="http://www.w3.org/2000/svg" xmlns:xlink="http://www.w3.org/1999/xlink">
<g id="graph0" class="graph" transform="scale(1 1) rotate(0) translate(4 409.195)">
<title>MovieSign</title>
<polygon fill="white" stroke="none" points="-4,4 -4,-409.195 337.5,-409.195 337.5,4 -4,4"/>
<!-- BTN -->
<g id="node1" class="node"><title>BTN</title>
<ellipse fill="none" stroke="red" cx="209.5" cy="-289.597" rx="28.6953" ry="28.6953"/>
<text text-anchor="middle" x="209.5" y="-285.897" font-family="Times,serif" font-size="14.00">BTN</text>
</g>
<!-- TEENSY -->
<g id="node6" class="node"><title>TEENSY</title>
<polygon fill="none" stroke="black" points="132.5,-210 64.5,-210 64.5,-174 132.5,-174 132.5,-210"/>
<text text-anchor="middle" x="98.5" y="-188.3" font-family="Times,serif" font-size="14.00">TEENSY</text>
</g>
<!-- BTN&#45;&gt;TEENSY -->
<g id="edge5" class="edge"><title>BTN&#45;&gt;TEENSY</title>
<path fill="none" stroke="black" d="M227.761,-267.464C236.173,-255.079 242.502,-239.634 233.5,-228 222.34,-213.578 177.574,-204.01 142.613,-198.577"/>
<polygon fill="black" stroke="black" points="142.994,-195.096 132.589,-197.089 141.966,-202.02 142.994,-195.096"/>
<text text-anchor="middle" x="270.5" y="-231.8" font-family="Times,serif" font-size="14.00">3.3V signal</text>
</g>
<!-- PWR_12V -->
<g id="node2" class="node"><title>PWR_12V</title>
<polygon fill="none" stroke="black" points="117,-405.195 40,-405.195 40,-369.195 117,-369.195 117,-405.195"/>
<text text-anchor="middle" x="78.5" y="-383.495" font-family="Times,serif" font-size="14.00">PWR_12V</text>
</g>
<!-- AMP -->
<g id="node3" class="node"><title>AMP</title>
<polygon fill="none" stroke="black" points="65.5,-123 11.5,-123 11.5,-87 65.5,-87 65.5,-123"/>
<text text-anchor="middle" x="38.5" y="-101.3" font-family="Times,serif" font-size="14.00">AMP</text>
</g>
<!-- PWR_12V&#45;&gt;AMP -->
<g id="edge1" class="edge"><title>PWR_12V&#45;&gt;AMP</title>
<path fill="none" stroke="black" d="M61.9533,-369.089C50.715,-356.234 36.7928,-337.574 30.5,-318.195 9.76135,-254.329 22.5838,-173.924 31.7083,-132.846"/>
<polygon fill="black" stroke="black" points="35.1305,-133.582 33.9826,-123.05 28.3118,-131.999 35.1305,-133.582"/>
<text text-anchor="middle" x="31.5" y="-231.8" font-family="Times,serif" font-size="14.00">12V</text>
</g>
<!-- BUCK_5V -->
<g id="node4" class="node"><title>BUCK_5V</title>
<polygon fill="none" stroke="black" points="117,-307.597 40,-307.597 40,-271.597 117,-271.597 117,-307.597"/>
<text text-anchor="middle" x="78.5" y="-285.897" font-family="Times,serif" font-size="14.00">BUCK_5V</text>
</g>
<!-- PWR_12V&#45;&gt;BUCK_5V -->
<g id="edge2" class="edge"><title>PWR_12V&#45;&gt;BUCK_5V</title>
<path fill="none" stroke="black" d="M78.5,-369.104C78.5,-354.918 78.5,-334.475 78.5,-318.006"/>
<polygon fill="black" stroke="black" points="82.0001,-317.863 78.5,-307.863 75.0001,-317.863 82.0001,-317.863"/>
<text text-anchor="middle" x="90.5" y="-339.995" font-family="Times,serif" font-size="14.00">12V</text>
</g>
<!-- RELAY -->
<g id="node5" class="node"><title>RELAY</title>
<polygon fill="none" stroke="black" points="248.5,-123 186.5,-123 186.5,-87 248.5,-87 248.5,-123"/>
<text text-anchor="middle" x="217.5" y="-101.3" font-family="Times,serif" font-size="14.00">RELAY</text>
</g>
<!-- PWR_12V&#45;&gt;RELAY -->
<g id="edge3" class="edge"><title>PWR_12V&#45;&gt;RELAY</title>
<path fill="none" stroke="black" d="M117.203,-377.501C174.632,-362.072 278.644,-323.629 306.5,-243 321.634,-199.196 281.19,-155.497 249.951,-129.614"/>
<polygon fill="black" stroke="black" points="251.835,-126.639 241.843,-123.115 247.457,-132.1 251.835,-126.639"/>
<text text-anchor="middle" x="321.5" y="-231.8" font-family="Times,serif" font-size="14.00">12V</text>
</g>
<!-- SPEAKER -->
<g id="node8" class="node"><title>SPEAKER</title>
<polygon fill="none" stroke="black" points="77,-36 0,-36 0,-0 77,-0 77,-36"/>
<text text-anchor="middle" x="38.5" y="-14.3" font-family="Times,serif" font-size="14.00">SPEAKER</text>
</g>
<!-- AMP&#45;&gt;SPEAKER -->
<g id="edge10" class="edge"><title>AMP&#45;&gt;SPEAKER</title>
<path fill="none" stroke="black" d="M38.5,-86.799C38.5,-75.1626 38.5,-59.5479 38.5,-46.2368"/>
<polygon fill="black" stroke="black" points="42.0001,-46.1754 38.5,-36.1754 35.0001,-46.1755 42.0001,-46.1754"/>
<text text-anchor="middle" x="103.5" y="-57.8" font-family="Times,serif" font-size="14.00">12V 10W analog signal</text>
</g>
<!-- BUCK_5V&#45;&gt;TEENSY -->
<g id="edge4" class="edge"><title>BUCK_5V&#45;&gt;TEENSY</title>
<path fill="none" stroke="black" d="M66.6073,-271.493C59.5725,-259.138 53.1653,-242.197 59.5,-228 61.1624,-224.274 63.4391,-220.78 66.0639,-217.55"/>
<polygon fill="black" stroke="black" points="68.8047,-219.747 73.1538,-210.086 63.7293,-214.926 68.8047,-219.747"/>
<text text-anchor="middle" x="68" y="-231.8" font-family="Times,serif" font-size="14.00">5V</text>
</g>
<!-- LIGHT -->
<g id="node7" class="node"><title>LIGHT</title>
<polygon fill="none" stroke="black" points="246,-36 189,-36 189,-0 246,-0 246,-36"/>
<text text-anchor="middle" x="217.5" y="-14.3" font-family="Times,serif" font-size="14.00">LIGHT</text>
</g>
<!-- RELAY&#45;&gt;LIGHT -->
<g id="edge8" class="edge"><title>RELAY&#45;&gt;LIGHT</title>
<path fill="none" stroke="black" d="M217.5,-86.799C217.5,-75.1626 217.5,-59.5479 217.5,-46.2368"/>
<polygon fill="black" stroke="black" points="221,-46.1754 217.5,-36.1754 214,-46.1755 221,-46.1754"/>
<text text-anchor="middle" x="274" y="-57.8" font-family="Times,serif" font-size="14.00">12V switched power</text>
</g>
<!-- TEENSY&#45;&gt;BTN -->
<g id="edge9" class="edge"><title>TEENSY&#45;&gt;BTN</title>
<path fill="none" stroke="black" d="M92.5406,-210.138C90.0632,-220.498 89.0645,-233.495 95.5,-243 100.15,-249.869 141.291,-265.242 172.828,-276.238"/>
<polygon fill="black" stroke="black" points="172.077,-279.682 182.672,-279.638 174.363,-273.065 172.077,-279.682"/>
<text text-anchor="middle" x="162.5" y="-231.8" font-family="Times,serif" font-size="14.00">3.3V light control signal</text>
</g>
<!-- TEENSY&#45;&gt;AMP -->
<g id="edge6" class="edge"><title>TEENSY&#45;&gt;AMP</title>
<path fill="none" stroke="black" d="M86.3581,-173.799C77.8189,-161.702 66.2446,-145.305 56.6175,-131.667"/>
<polygon fill="black" stroke="black" points="59.2501,-129.327 50.6238,-123.175 53.5313,-133.364 59.2501,-129.327"/>
<text text-anchor="middle" x="124" y="-144.8" font-family="Times,serif" font-size="14.00">3.3V analog signal</text>
</g>
<!-- TEENSY&#45;&gt;RELAY -->
<g id="edge7" class="edge"><title>TEENSY&#45;&gt;RELAY</title>
<path fill="none" stroke="black" d="M132.526,-180.729C147.876,-175.029 165.63,-166.862 179.5,-156 188.127,-149.244 195.837,-140.086 202.02,-131.454"/>
<polygon fill="black" stroke="black" points="204.964,-133.349 207.672,-123.106 199.167,-129.424 204.964,-133.349"/>
<text text-anchor="middle" x="226.5" y="-144.8" font-family="Times,serif" font-size="14.00">3.3V signal</text>
</g>
</g>
</svg>
