<?xml version="1.0" encoding="UTF-8" standalone="no"?>
<!DOCTYPE svg PUBLIC "-//W3C//DTD SVG 1.1//EN"
 "http://www.w3.org/Graphics/SVG/1.1/DTD/svg11.dtd">
<!-- Generated by graphviz version 2.38.0 (20140413.2041)
 -->
<!-- Title: MovieSign Pages: 1 -->
<svg width="306pt" height="413pt"
 viewBox="0.00 0.00 305.50 413.19" xmlns="http://www.w3.org/2000/svg" xmlns:xlink="http://www.w3.org/1999/xlink">
<g id="graph0" class="graph" transform="scale(1 1) rotate(0) translate(4 409.195)">
<title>MovieSign</title>
<polygon fill="white" stroke="none" points="-4,4 -4,-409.195 301.5,-409.195 301.5,4 -4,4"/>
<!-- BTN -->
<g id="node1" class="node"><title>BTN</title>
<ellipse fill="none" stroke="red" cx="177.5" cy="-289.597" rx="28.6953" ry="28.6953"/>
<text text-anchor="middle" x="177.5" y="-285.897" font-family="Times,serif" font-size="14.00">BTN</text>
</g>
<!-- TEENSY -->
<g id="node6" class="node"><title>TEENSY</title>
<polygon fill="none" stroke="black" points="140.5,-210 72.5,-210 72.5,-174 140.5,-174 140.5,-210"/>
<text text-anchor="middle" x="106.5" y="-188.3" font-family="Times,serif" font-size="14.00">TEENSY</text>
</g>
<!-- BTN&#45;&gt;TEENSY -->
<g id="edge5" class="edge"><title>BTN&#45;&gt;TEENSY</title>
<path fill="none" stroke="black" d="M174.654,-261.074C172.437,-249.983 168.498,-237.576 161.5,-228 157.992,-223.2 153.608,-218.896 148.855,-215.087"/>
<polygon fill="black" stroke="black" points="150.758,-212.144 140.597,-209.143 146.668,-217.825 150.758,-212.144"/>
<text text-anchor="middle" x="218.5" y="-231.8" font-family="Times,serif" font-size="14.00">INPUT_PULLUP</text>
</g>
<!-- PWR_12V -->
<g id="node2" class="node"><title>PWR_12V</title>
<polygon fill="none" stroke="black" points="125,-405.195 48,-405.195 48,-369.195 125,-369.195 125,-405.195"/>
<text text-anchor="middle" x="86.5" y="-383.495" font-family="Times,serif" font-size="14.00">PWR_12V</text>
</g>
<!-- AMP -->
<g id="node3" class="node"><title>AMP</title>
<polygon fill="none" stroke="black" points="65.5,-123 11.5,-123 11.5,-87 65.5,-87 65.5,-123"/>
<text text-anchor="middle" x="38.5" y="-101.3" font-family="Times,serif" font-size="14.00">AMP</text>
</g>
<!-- PWR_12V&#45;&gt;AMP -->
<g id="edge1" class="edge"><title>PWR_12V&#45;&gt;AMP</title>
<path fill="none" stroke="black" d="M69.9533,-369.089C58.715,-356.234 44.7928,-337.574 38.5,-318.195 17.8201,-254.51 26.5053,-174.292 33.2821,-133.12"/>
<polygon fill="black" stroke="black" points="36.7669,-133.509 35.0309,-123.057 29.8703,-132.31 36.7669,-133.509"/>
<text text-anchor="middle" x="38.5" y="-231.8" font-family="Times,serif" font-size="14.00">12V</text>
</g>
<!-- BUCK_5V -->
<g id="node4" class="node"><title>BUCK_5V</title>
<polygon fill="none" stroke="black" points="125,-307.597 48,-307.597 48,-271.597 125,-271.597 125,-307.597"/>
<text text-anchor="middle" x="86.5" y="-285.897" font-family="Times,serif" font-size="14.00">BUCK_5V</text>
</g>
<!-- PWR_12V&#45;&gt;BUCK_5V -->
<g id="edge2" class="edge"><title>PWR_12V&#45;&gt;BUCK_5V</title>
<path fill="none" stroke="black" d="M86.5,-369.104C86.5,-354.918 86.5,-334.475 86.5,-318.006"/>
<polygon fill="black" stroke="black" points="90.0001,-317.863 86.5,-307.863 83.0001,-317.863 90.0001,-317.863"/>
<text text-anchor="middle" x="98.5" y="-339.995" font-family="Times,serif" font-size="14.00">12V</text>
</g>
<!-- RELAY -->
<g id="node5" class="node"><title>RELAY</title>
<polygon fill="none" stroke="black" points="172.5,-123 110.5,-123 110.5,-87 172.5,-87 172.5,-123"/>
<text text-anchor="middle" x="141.5" y="-101.3" font-family="Times,serif" font-size="14.00">RELAY</text>
</g>
<!-- PWR_12V&#45;&gt;RELAY -->
<g id="edge3" class="edge"><title>PWR_12V&#45;&gt;RELAY</title>
<path fill="none" stroke="black" d="M125.259,-371.831C172.679,-351.643 249.393,-309.696 271.5,-243 289.028,-190.117 226.019,-147.081 181.661,-124.117"/>
<polygon fill="black" stroke="black" points="183.021,-120.883 172.514,-119.525 179.881,-127.139 183.021,-120.883"/>
<text text-anchor="middle" x="285.5" y="-231.8" font-family="Times,serif" font-size="14.00">12V</text>
</g>
<!-- SPEAKER -->
<g id="node8" class="node"><title>SPEAKER</title>
<polygon fill="none" stroke="black" points="77,-36 0,-36 0,-0 77,-0 77,-36"/>
<text text-anchor="middle" x="38.5" y="-14.3" font-family="Times,serif" font-size="14.00">SPEAKER</text>
</g>
<!-- AMP&#45;&gt;SPEAKER -->
<g id="edge10" class="edge"><title>AMP&#45;&gt;SPEAKER</title>
<path fill="none" stroke="black" d="M38.5,-86.799C38.5,-75.1626 38.5,-59.5479 38.5,-46.2368"/>
<polygon fill="black" stroke="black" points="42.0001,-46.1754 38.5,-36.1754 35.0001,-46.1755 42.0001,-46.1754"/>
<text text-anchor="middle" x="57" y="-57.8" font-family="Times,serif" font-size="14.00">analog</text>
</g>
<!-- BUCK_5V&#45;&gt;TEENSY -->
<g id="edge4" class="edge"><title>BUCK_5V&#45;&gt;TEENSY</title>
<path fill="none" stroke="black" d="M74.6073,-271.493C67.5725,-259.138 61.1653,-242.197 67.5,-228 69.1624,-224.274 71.4391,-220.78 74.0639,-217.55"/>
<polygon fill="black" stroke="black" points="76.8047,-219.747 81.1538,-210.086 71.7293,-214.926 76.8047,-219.747"/>
<text text-anchor="middle" x="76" y="-231.8" font-family="Times,serif" font-size="14.00">5V</text>
</g>
<!-- LIGHT -->
<g id="node7" class="node"><title>LIGHT</title>
<polygon fill="none" stroke="black" points="170,-36 113,-36 113,-0 170,-0 170,-36"/>
<text text-anchor="middle" x="141.5" y="-14.3" font-family="Times,serif" font-size="14.00">LIGHT</text>
</g>
<!-- RELAY&#45;&gt;LIGHT -->
<g id="edge8" class="edge"><title>RELAY&#45;&gt;LIGHT</title>
<path fill="none" stroke="black" d="M141.5,-86.799C141.5,-75.1626 141.5,-59.5479 141.5,-46.2368"/>
<polygon fill="black" stroke="black" points="145,-46.1754 141.5,-36.1754 138,-46.1755 145,-46.1754"/>
<text text-anchor="middle" x="179.5" y="-57.8" font-family="Times,serif" font-size="14.00">12V switched</text>
</g>
<!-- TEENSY&#45;&gt;BTN -->
<g id="edge9" class="edge"><title>TEENSY&#45;&gt;BTN</title>
<path fill="none" stroke="black" d="M100.987,-210.265C98.7907,-220.422 97.93,-233.162 103.5,-243 111.161,-256.531 120.246,-252.869 133.5,-261 137.132,-263.228 140.922,-265.574 144.688,-267.918"/>
<polygon fill="black" stroke="black" points="143.011,-270.997 153.346,-273.328 146.72,-265.061 143.011,-270.997"/>
<text text-anchor="middle" x="130.5" y="-231.8" font-family="Times,serif" font-size="14.00">OUTPUT</text>
</g>
<!-- TEENSY&#45;&gt;AMP -->
<g id="edge6" class="edge"><title>TEENSY&#45;&gt;AMP</title>
<path fill="none" stroke="black" d="M92.7392,-173.799C82.9692,-161.587 69.6937,-144.992 58.7221,-131.278"/>
<polygon fill="black" stroke="black" points="61.2204,-128.798 52.2403,-123.175 55.7543,-133.171 61.2204,-128.798"/>
<text text-anchor="middle" x="92" y="-144.8" font-family="Times,serif" font-size="14.00">DAC</text>
</g>
<!-- TEENSY&#45;&gt;RELAY -->
<g id="edge7" class="edge"><title>TEENSY&#45;&gt;RELAY</title>
<path fill="none" stroke="black" d="M113.583,-173.799C118.469,-161.932 125.059,-145.928 130.609,-132.449"/>
<polygon fill="black" stroke="black" points="133.857,-133.755 134.428,-123.175 127.384,-131.09 133.857,-133.755"/>
<text text-anchor="middle" x="153.5" y="-144.8" font-family="Times,serif" font-size="14.00">OUTPUT</text>
</g>
</g>
</svg>
