<?xml version="1.0" encoding="UTF-8" standalone="no"?>
<!DOCTYPE svg PUBLIC "-//W3C//DTD SVG 1.1//EN"
 "http://www.w3.org/Graphics/SVG/1.1/DTD/svg11.dtd">
<!-- Generated by graphviz version 2.38.0 (20140413.2041)
 -->
<!-- Title: MovieSign Pages: 1 -->
<svg width="397pt" height="413pt"
 viewBox="0.00 0.00 396.50 413.19" xmlns="http://www.w3.org/2000/svg" xmlns:xlink="http://www.w3.org/1999/xlink">
<g id="graph0" class="graph" transform="scale(1 1) rotate(0) translate(4 409.195)">
<title>MovieSign</title>
<polygon fill="white" stroke="none" points="-4,4 -4,-409.195 392.5,-409.195 392.5,4 -4,4"/>
<!-- BTN -->
<g id="node1" class="node"><title>BTN</title>
<ellipse fill="none" stroke="red" cx="206.5" cy="-289.597" rx="28.6953" ry="28.6953"/>
<text text-anchor="middle" x="206.5" y="-285.897" font-family="Times,serif" font-size="14.00">BTN</text>
</g>
<!-- TEENSY -->
<g id="node6" class="node"><title>TEENSY</title>
<polygon fill="none" stroke="black" points="129.5,-210 61.5,-210 61.5,-174 129.5,-174 129.5,-210"/>
<text text-anchor="middle" x="95.5" y="-188.3" font-family="Times,serif" font-size="14.00">TEENSY</text>
</g>
<!-- BTN&#45;&gt;TEENSY -->
<g id="edge5" class="edge"><title>BTN&#45;&gt;TEENSY</title>
<path fill="none" stroke="black" d="M224.761,-267.464C233.173,-255.079 239.502,-239.634 230.5,-228 219.34,-213.578 174.574,-204.01 139.613,-198.577"/>
<polygon fill="black" stroke="black" points="139.994,-195.096 129.589,-197.089 138.966,-202.02 139.994,-195.096"/>
<text text-anchor="middle" x="267.5" y="-231.8" font-family="Times,serif" font-size="14.00">3.3V signal</text>
</g>
<!-- PWR_12V -->
<g id="node2" class="node"><title>PWR_12V</title>
<polygon fill="none" stroke="black" points="114,-405.195 37,-405.195 37,-369.195 114,-369.195 114,-405.195"/>
<text text-anchor="middle" x="75.5" y="-383.495" font-family="Times,serif" font-size="14.00">PWR_12V</text>
</g>
<!-- AMP -->
<g id="node3" class="node"><title>AMP</title>
<polygon fill="none" stroke="black" points="65.5,-123 11.5,-123 11.5,-87 65.5,-87 65.5,-123"/>
<text text-anchor="middle" x="38.5" y="-101.3" font-family="Times,serif" font-size="14.00">AMP</text>
</g>
<!-- PWR_12V&#45;&gt;AMP -->
<g id="edge1" class="edge"><title>PWR_12V&#45;&gt;AMP</title>
<path fill="none" stroke="black" d="M58.9533,-369.089C47.715,-356.234 33.7928,-337.574 27.5,-318.195 6.74825,-254.289 21.0949,-173.901 31.1001,-132.836"/>
<polygon fill="black" stroke="black" points="34.5179,-133.597 33.5882,-123.043 27.7334,-131.873 34.5179,-133.597"/>
<text text-anchor="middle" x="29.5" y="-231.8" font-family="Times,serif" font-size="14.00">12V</text>
</g>
<!-- BUCK_5V -->
<g id="node4" class="node"><title>BUCK_5V</title>
<polygon fill="none" stroke="black" points="114,-307.597 37,-307.597 37,-271.597 114,-271.597 114,-307.597"/>
<text text-anchor="middle" x="75.5" y="-285.897" font-family="Times,serif" font-size="14.00">BUCK_5V</text>
</g>
<!-- PWR_12V&#45;&gt;BUCK_5V -->
<g id="edge2" class="edge"><title>PWR_12V&#45;&gt;BUCK_5V</title>
<path fill="none" stroke="black" d="M75.5,-369.104C75.5,-354.918 75.5,-334.475 75.5,-318.006"/>
<polygon fill="black" stroke="black" points="79.0001,-317.863 75.5,-307.863 72.0001,-317.863 79.0001,-317.863"/>
<text text-anchor="middle" x="87.5" y="-339.995" font-family="Times,serif" font-size="14.00">12V</text>
</g>
<!-- RELAY -->
<g id="node5" class="node"><title>RELAY</title>
<polygon fill="none" stroke="black" points="306.5,-123 244.5,-123 244.5,-87 306.5,-87 306.5,-123"/>
<text text-anchor="middle" x="275.5" y="-101.3" font-family="Times,serif" font-size="14.00">RELAY</text>
</g>
<!-- PWR_12V&#45;&gt;RELAY -->
<g id="edge3" class="edge"><title>PWR_12V&#45;&gt;RELAY</title>
<path fill="none" stroke="black" d="M114.203,-377.501C171.632,-362.072 275.644,-323.629 303.5,-243 316.406,-205.644 301.573,-160.393 289.062,-132.397"/>
<polygon fill="black" stroke="black" points="292.192,-130.829 284.783,-123.256 285.852,-133.796 292.192,-130.829"/>
<text text-anchor="middle" x="318.5" y="-231.8" font-family="Times,serif" font-size="14.00">12V</text>
</g>
<!-- SPEAKER -->
<g id="node8" class="node"><title>SPEAKER</title>
<polygon fill="none" stroke="black" points="77,-36 0,-36 0,-0 77,-0 77,-36"/>
<text text-anchor="middle" x="38.5" y="-14.3" font-family="Times,serif" font-size="14.00">SPEAKER</text>
</g>
<!-- AMP&#45;&gt;SPEAKER -->
<g id="edge10" class="edge"><title>AMP&#45;&gt;SPEAKER</title>
<path fill="none" stroke="black" d="M38.5,-86.799C38.5,-75.1626 38.5,-59.5479 38.5,-46.2368"/>
<polygon fill="black" stroke="black" points="42.0001,-46.1754 38.5,-36.1754 35.0001,-46.1755 42.0001,-46.1754"/>
<text text-anchor="middle" x="75" y="-57.8" font-family="Times,serif" font-size="14.00">analog signal</text>
</g>
<!-- BUCK_5V&#45;&gt;TEENSY -->
<g id="edge4" class="edge"><title>BUCK_5V&#45;&gt;TEENSY</title>
<path fill="none" stroke="black" d="M63.6073,-271.493C56.5725,-259.138 50.1653,-242.197 56.5,-228 58.1624,-224.274 60.4391,-220.78 63.0639,-217.55"/>
<polygon fill="black" stroke="black" points="65.8047,-219.747 70.1538,-210.086 60.7293,-214.926 65.8047,-219.747"/>
<text text-anchor="middle" x="65" y="-231.8" font-family="Times,serif" font-size="14.00">5V</text>
</g>
<!-- LIGHT -->
<g id="node7" class="node"><title>LIGHT</title>
<polygon fill="none" stroke="black" points="304,-36 247,-36 247,-0 304,-0 304,-36"/>
<text text-anchor="middle" x="275.5" y="-14.3" font-family="Times,serif" font-size="14.00">LIGHT</text>
</g>
<!-- RELAY&#45;&gt;LIGHT -->
<g id="edge8" class="edge"><title>RELAY&#45;&gt;LIGHT</title>
<path fill="none" stroke="black" d="M275.5,-86.799C275.5,-75.1626 275.5,-59.5479 275.5,-46.2368"/>
<polygon fill="black" stroke="black" points="279,-46.1754 275.5,-36.1754 272,-46.1755 279,-46.1754"/>
<text text-anchor="middle" x="332" y="-57.8" font-family="Times,serif" font-size="14.00">12V switched power</text>
</g>
<!-- TEENSY&#45;&gt;BTN -->
<g id="edge9" class="edge"><title>TEENSY&#45;&gt;BTN</title>
<path fill="none" stroke="black" d="M89.5406,-210.138C87.0632,-220.498 86.0645,-233.495 92.5,-243 97.1504,-249.869 138.291,-265.242 169.828,-276.238"/>
<polygon fill="black" stroke="black" points="169.077,-279.682 179.672,-279.638 171.363,-273.065 169.077,-279.682"/>
<text text-anchor="middle" x="159.5" y="-231.8" font-family="Times,serif" font-size="14.00">3.3V light control signal</text>
</g>
<!-- TEENSY&#45;&gt;AMP -->
<g id="edge6" class="edge"><title>TEENSY&#45;&gt;AMP</title>
<path fill="none" stroke="black" d="M83.9652,-173.799C75.8529,-161.702 64.8574,-145.305 55.7117,-131.667"/>
<polygon fill="black" stroke="black" points="58.4941,-129.532 50.0176,-123.175 52.6803,-133.43 58.4941,-129.532"/>
<text text-anchor="middle" x="107" y="-144.8" font-family="Times,serif" font-size="14.00">analog signal</text>
</g>
<!-- TEENSY&#45;&gt;RELAY -->
<g id="edge7" class="edge"><title>TEENSY&#45;&gt;RELAY</title>
<path fill="none" stroke="black" d="M129.78,-174.812C159.731,-160.669 203.254,-140.116 234.932,-125.157"/>
<polygon fill="black" stroke="black" points="236.807,-128.142 244.355,-120.707 233.818,-121.813 236.807,-128.142"/>
<text text-anchor="middle" x="228.5" y="-144.8" font-family="Times,serif" font-size="14.00">3.3V signal</text>
</g>
</g>
</svg>
