<svg xmlns="http://www.w3.org/2000/svg" xmlns:xlink="http://www.w3.org/1999/xlink" width="408" height="551" viewBox="0 0 306 413" id="svg2" version="1">
  <defs id="defs157">
    <marker id="marker23152" orient="auto" overflow="visible">
      <path transform="matrix(-.8 0 0 -.8 -10 0)" d="M0 0l5-5-17 5L5 5 0 0z" id="path23154" fill-rule="evenodd" stroke="#000"/>
    </marker>
    <marker orient="auto" id="marker22004" overflow="visible">
      <path id="path22006" d="M0 0l5-5-17 5L5 5 0 0z" transform="matrix(-.8 0 0 -.8 -10 0)" fill-rule="evenodd" stroke="#000"/>
    </marker>
    <marker id="marker19922" orient="auto" overflow="visible">
      <path transform="matrix(-.8 0 0 -.8 -10 0)" d="M0 0l5-5-17 5L5 5 0 0z" id="path19924" fill-rule="evenodd" stroke="#000"/>
    </marker>
    <marker orient="auto" id="marker13104" overflow="visible">
      <path id="path13106" d="M0 0l5-5-17 5L5 5 0 0z" transform="matrix(-.8 0 0 -.8 -10 0)" fill-rule="evenodd" stroke="#000"/>
    </marker>
    <marker id="marker11398" orient="auto" overflow="visible">
      <path transform="matrix(-.8 0 0 -.8 -10 0)" d="M0 0l5-5-17 5L5 5 0 0z" id="path11400" fill-rule="evenodd" stroke="#000"/>
    </marker>
    <marker orient="auto" id="marker10578" overflow="visible">
      <path id="path10580" d="M0 0l5-5-17 5L5 5 0 0z" transform="matrix(-.8 0 0 -.8 -10 0)" fill-rule="evenodd" stroke="#000"/>
    </marker>
    <marker id="marker10168" orient="auto" overflow="visible">
      <path transform="matrix(-.8 0 0 -.8 -10 0)" d="M0 0l5-5-17 5L5 5 0 0z" id="path10170" fill-rule="evenodd" stroke="#000"/>
    </marker>
    <marker orient="auto" id="marker9918" overflow="visible">
      <path id="path9920" d="M0 0l5-5-17 5L5 5 0 0z" transform="matrix(-.8 0 0 -.8 -10 0)" fill-rule="evenodd" stroke="#000"/>
    </marker>
    <marker id="marker6384" orient="auto" overflow="visible">
      <path transform="matrix(-.8 0 0 -.8 -10 0)" d="M0 0l5-5-17 5L5 5 0 0z" id="path6386" fill-rule="evenodd" stroke="#000"/>
    </marker>
    <marker orient="auto" id="Arrow1Lend" overflow="visible">
      <path id="path4439" d="M0 0l5-5-17 5L5 5 0 0z" transform="matrix(-.8 0 0 -.8 -10 0)" fill-rule="evenodd" stroke="#000"/>
    </marker>
    <marker orient="auto" id="Arrow1Lstart" overflow="visible">
      <path id="path4436" d="M0 0l5-5-17 5L5 5 0 0z" transform="matrix(.8 0 0 .8 10 0)" fill-rule="evenodd" stroke="#000"/>
    </marker>
    <style id="style23667">
      textPath{baseline-shift:25%}
    </style>
  </defs>
  <g id="g4416" transform="translate(24 -8)">
    <circle r="29" id="ellipse12" cy="120" cx="182" fill="none" stroke="red"/>
    <text id="text14" font-size="14" y="123" x="182" font-family="Times,serif" text-anchor="middle">
      BTN
    </text>
  </g>
  <g id="g5702" transform="translate(-35 4)">
    <path transform="translate(46 399)" id="polygon19" fill="none" stroke="#000" d="M141-174v-36H73v36z"/>
    <text id="text21" font-size="14" y="211" x="153" font-family="Times,serif" text-anchor="middle">
      Teensy 3.2
    </text>
  </g>
  <text font-size="14" id="text30" font-family="Times,serif" text-anchor="middle">
    <textPath xlink:href="#path5440" startOffset="50%" id="textPath6376">INPUT_PULLUP</textPath>
  </text>
  <g id="g4424">
    <path transform="translate(4 409)" id="polygon35" fill="none" stroke="#000" d="M125-405H48v36h77z"/>
    <text id="text37" font-size="14" y="26" x="91" font-family="Times,serif" text-anchor="middle">
      PWR_12V
    </text>
  </g>
  <path id="polygon42" transform="translate(4 409)" fill="none" stroke="#000" d="M66-123H12v36h54z"/>
  <text x="43" y="308" font-size="14" id="text44" font-family="Times,serif" text-anchor="middle">
    AMP
  </text>
  <path d="M51 40C8 83 16 196 15 285" id="path49" fill="none" stroke="#000" marker-end="url(#marker13104)"/>
  <text font-size="14" id="text53" font-family="Times,serif" text-anchor="middle">
    <textPath xlink:href="#path49" id="textPath13096" startOffset="50%" baseline-shift="25%">12V</textPath>
  </text>
  <g id="g4420">
    <path transform="translate(4 409)" id="polygon58" fill="none" stroke="#000" d="M125-308H48v36h77z"/>
    <text id="text60" font-size="14" y="123" x="91" font-family="Times,serif" text-anchor="middle">
      BUCK_5V
    </text>
  </g>
  <path d="M90 40v61" id="path65" fill="none" stroke="#000" marker-end="url(#marker23152)"/>
  <text font-size="14" id="text69" font-family="Times,serif" text-anchor="middle">
    <textPath xlink:href="#path65" startOffset="50%" id="textPath23144">12V</textPath>
  </text>
  <g id="g10568" transform="translate(74 -7)">
    <path transform="translate(4 409)" id="polygon74" fill="none" stroke="#000" d="M173-87v-36h-62v36z"/>
    <text id="text76" font-size="14" y="308" x="146" font-family="Times,serif" text-anchor="middle">
      RELAY
    </text>
  </g>
  <path d="M129 21c81 0 212 168 122 258" id="path81" fill="none" stroke="#000" marker-end="url(#marker11398)"/>
  <text font-size="14" id="text85" font-family="Times,serif" text-anchor="middle">
    <textPath xlink:href="#path81" startOffset="50%" id="textPath11462">12V</textPath>
  </text>
  <g id="g22734" transform="translate(27)">
    <path transform="translate(4 409)" id="polygon90" fill="none" stroke="#000" d="M77-36H0V0h77v-36z"/>
    <text id="text92" font-size="14" y="395" x="43" font-family="Times,serif" text-anchor="middle">
      SPEAKER
    </text>
  </g>
  <path d="M15 322c0 26 65-10 65 50" id="path97" fill="none" stroke="#000" marker-end="url(#marker22004)"/>
  <text font-size="14" id="text101" font-family="Times,serif" text-anchor="middle">
    <textPath xlink:href="#path97" startOffset="50%" id="textPath21996">analog</textPath>
  </text>
  <path d="M79 138c-9 21-9 37 4 53" id="path106" fill="none" stroke="#000" marker-end="url(#marker9918)"/>
  <text font-size="14" id="text110" font-family="Times,serif" text-anchor="middle">
    <textPath xlink:href="#path106" startOffset="50%" id="textPath10156">5V</textPath>
  </text>
  <g id="g22738" transform="translate(73 2)">
    <path transform="translate(4 409)" id="polygon115" fill="none" stroke="#000" d="M170-36h-57V0h57v-36z"/>
    <text id="text117" font-size="14" y="395" x="146" font-family="Times,serif" text-anchor="middle">
      LIGHT
    </text>
  </g>
  <path d="M219 315v58" id="path122" fill="none" stroke="#000" marker-end="url(#marker10168)"/>
  <text font-size="14" id="text126" font-family="Times,serif" text-anchor="middle">
    <textPath xlink:href="#path122" startOffset="50%" id="textPath10160">12V</textPath>
  </text>
  <text font-size="14" id="text135" font-family="Times,serif" text-anchor="middle">
    <textPath xlink:href="#path5208" startOffset="50%" id="textPath5216">OUTPUT</textPath>
  </text>
  <path d="M83 229c-15 15-13 31-13 58" id="path140" fill="none" stroke="#000" marker-end="url(#marker19922)"/>
  <text font-size="14" id="text144" font-family="Times,serif" text-anchor="middle">
    <textPath xlink:href="#path140" startOffset="50%" id="textPath19914">DAC</textPath>
  </text>
  <path d="M119 229c0 39 16 67 68 67" id="path149" fill="none" stroke="#000" marker-end="url(#marker10578)"/>
  <text font-size="14" id="text153" font-family="Times,serif" text-anchor="middle">
    <textPath xlink:href="#path149" startOffset="50%" id="textPath10158">OUTPUT</textPath>
  </text>
  <path d="M119 192c-1-26 22-61 79-65" id="path5208" fill="none" fill-rule="evenodd" stroke="#000" marker-end="url(#Arrow1Lend)"/>
  <path d="M206 141c0 48-15 67-54 71" id="path5440" fill="none" fill-rule="evenodd" stroke="#000" marker-end="url(#marker6384)"/>
  <g transform="translate(155 92) scale(.28814)" id="g6012">
    <circle cx="182" cy="120" id="circle6014" r="29" fill="none" stroke="red" stroke-width="3"/>
    <text x="182" y="123" font-size="14" id="text6016" font-family="Times,serif" text-anchor="middle">
      LED
    </text>
  </g>
</svg>
